<svg
  xmlns="http://www.w3.org/2000/svg"
  role="img"
  viewBox="0 0 24 24"
  fill="currentColor"
>
  <title>GitHub</title>
  <path
    d="M12 .297a12 12 0 00-3.797 23.4c.6.112.82-.262.82-.58v-2.234c-3.338.724-4.033-1.416-4.033-1.416-.546-1.385-1.333-1.754-1.333-1.754-1.089-.746.084-.73.084-.73 1.205.085 1.84 1.238 1.84 1.238 1.07 1.835 2.807 1.305 3.492.998.108-.775.42-1.305.762-1.605-2.665-.3-5.467-1.333-5.467-5.933 0-1.31.468-2.382 1.235-3.222-.124-.303-.535-1.523.117-3.176 0 0 1.008-.322 3.3 1.23a11.48 11.48 0 016 0c2.29-1.552 3.296-1.23 3.296-1.23.653 1.653.242 2.873.119 3.176.77.84 1.233 1.912 1.233 3.222 0 4.61-2.807 5.63-5.48 5.922.43.37.823 1.096.823 2.21v3.285c0 .32.217.697.825.578A12 12 0 0012 .297z"
  />
</svg>
